<?xml version="1.0" encoding="UTF-8" standalone="no"?>
<!-- Created with Inkscape (http://www.inkscape.org/) -->

<svg
   xmlns:dc="http://purl.org/dc/elements/1.1/"
   xmlns:cc="http://creativecommons.org/ns#"
   xmlns:rdf="http://www.w3.org/1999/02/22-rdf-syntax-ns#"
   xmlns:svg="http://www.w3.org/2000/svg"
   xmlns="http://www.w3.org/2000/svg"
   xmlns:sodipodi="http://sodipodi.sourceforge.net/DTD/sodipodi-0.dtd"
   xmlns:inkscape="http://www.inkscape.org/namespaces/inkscape"
   width="165.62801mm"
   height="165.62801mm"
   viewBox="0 0 165.62801 165.62801"
   version="1.1"
   id="svg8"
   inkscape:version="0.92.4 (5da689c313, 2019-01-14)"
   sodipodi:docname="Icon_Bard.svg">
  <defs
     id="defs2" />
  <sodipodi:namedview
     id="base"
     pagecolor="#ffffff"
     bordercolor="#666666"
     borderopacity="1.0"
     inkscape:pageopacity="0.0"
     inkscape:pageshadow="2"
     inkscape:zoom="0.70710678"
     inkscape:cx="284.97292"
     inkscape:cy="244.41994"
     inkscape:document-units="mm"
     inkscape:current-layer="layer1"
     showgrid="false"
     showguides="false"
     inkscape:window-width="1920"
     inkscape:window-height="1017"
     inkscape:window-x="1912"
     inkscape:window-y="-8"
     inkscape:window-maximized="1" />
  <metadata
     id="metadata5">
    <rdf:RDF>
      <cc:Work
         rdf:about="">
        <dc:format>image/svg+xml</dc:format>
        <dc:type
           rdf:resource="http://purl.org/dc/dcmitype/StillImage" />
        <dc:title />
      </cc:Work>
    </rdf:RDF>
  </metadata>
  <g
     inkscape:label="Capa 1"
     inkscape:groupmode="layer"
     id="layer1"
     transform="translate(0,-131.372)">
    <g
       id="g991"
       transform="translate(-1427.2009,-333.41244)">
      <rect
         y="464.82144"
         x="1427.2382"
         height="165.55357"
         width="165.55357"
         id="rect1229"
         style="opacity:1;fill:#2a7fff;fill-opacity:1;stroke:#000000;stroke-width:0.074;stroke-miterlimit:4;stroke-dasharray:none;stroke-opacity:1" />
      <circle
         r="34.395832"
         cy="536.25891"
         cx="1510.0149"
         id="circle1231"
         style="opacity:1;fill:#ffffff;fill-opacity:1;stroke:#000000;stroke-width:0.074;stroke-miterlimit:4;stroke-dasharray:none;stroke-opacity:1" />
      <path
         inkscape:connector-curvature="0"
         id="path1233"
         d="m 1449.1894,630.44573 a 60.825731,60.825731 0 0 1 -2e-4,-0.16603 60.825731,60.825731 0 0 1 60.8257,-60.82572 60.825731,60.825731 0 0 1 60.8257,60.82572 v 0 a 60.825731,60.825731 0 0 1 -2e-4,0.16616"
         style="opacity:1;fill:#ffffff;fill-opacity:1;stroke:#000000;stroke-width:0.13086191;stroke-miterlimit:4;stroke-dasharray:none;stroke-opacity:1" />
      <rect
         style="opacity:1;fill:#2ca02c;fill-opacity:1;stroke:#000000;stroke-width:0.074;stroke-miterlimit:4;stroke-dasharray:none;stroke-opacity:1"
         id="rect1235"
         width="165.55357"
         height="165.55357"
         x="1427.2382"
         y="464.82144" />
      <circle
         style="opacity:1;fill:none;fill-opacity:1;stroke:#ffffff;stroke-width:8;stroke-miterlimit:4;stroke-dasharray:none;stroke-opacity:1"
         id="circle1237"
         cx="1510.0149"
         cy="536.25891"
         r="34.395832" />
      <path
         sodipodi:nodetypes="sccccccccccsccccccccccsccccccccccccccccscccccccccccsccccccccccccccccccccccccccccccccccccccccccccc"
         inkscape:connector-curvature="0"
         id="path1239"
         transform="scale(0.26458333)"
         d="m 5943.3691,2067.293 c -0.5822,-0.01 -1.1637,0 -1.7461,0.01 -12.9513,0.237 -26.0291,4.556 -36.998,13.0762 v 0.01 0 c -15.2171,11.8452 -17.8476,28.4756 -20.2461,37.0313 l -3.7051,2.8789 c -4.1745,-0.2079 -10.4694,0.2067 -17.2011,5.4355 v 0 c -6.9483,5.3975 -12.0848,12.3424 -15.4414,19.9219 l -25.9551,20.1621 c -34.2925,-18.2859 -73.413,-28.6699 -114.9277,-28.6699 -135.1363,1e-4 -245.0137,109.8752 -245.0137,245.0117 -4e-4,0.223 -7e-4,0.4411 0,0.6641 l 31.9378,5.1409 c -3e-4,-0.077 -1.7014,-5.3672 -1.7015,-5.4434 h 286.2793 c 1.0312,-0.6442 2.0599,-1.3485 3.0801,-2.1386 v -0.01 -0.01 c 30.2763,-23.5182 43.2173,-61.269 36.625,-96.6777 l 52.4473,-40.7402 c 31.8833,37.4666 51.1133,86.0496 51.1133,139.2109 v 0.01 c 3e-4,0.1954 7e-4,0.3865 0,0.582 l 30.2363,0.082 c 7e-4,-0.223 4e-4,-0.4488 0,-0.6719 0,-60.0077 -21.677,-115.0233 -57.5977,-157.6602 l 9.1817,-7.1328 c 8.1702,-1.3767 16.1681,-4.6332 23.1172,-10.0312 v -0.01 -0.01 c 6.6984,-5.2191 8.654,-11.1945 9.4863,-15.293 l 3.7617,-2.9219 c 8.9016,-0.1999 25.6247,1.3542 40.8438,-10.4258 v -0.01 -0.01 c 26.9994,-20.9727 31.9452,-60.3159 10.9726,-87.3164 -12.0636,-15.5302 -30.2156,-23.8619 -48.5469,-24.0527 z m -236.2226,100.0879 c 31.5697,0 61.5267,6.7793 88.5,18.9629 l -32.9922,25.6289 c -32.6778,-15.1466 -72.4573,-11.946 -102.7344,11.5722 -13.5624,10.5351 -14.4379,25.4532 -16.5254,33.4414 -1.0439,3.994 -2.1463,6.5325 -3.1093,7.8164 -0.9631,1.2839 -1.56,2.0547 -5.1993,3.0235 -9.3173,2.4802 -25.9963,2.4495 -44.0722,3.8496 -18.076,1.4002 -38.5461,4.5485 -55.7539,17.8867 v 0.01 0 c -18.0701,14.0364 -31.1977,32.1675 -39.0723,52.0723 18.8976,-99.3608 106.0182,-174.2656 210.959,-174.2656 z m 142.334,53.832 -65.5215,50.8965 2.9883,9.9316 c 7.9699,26.4947 -0.4647,56.3235 -23.7598,74.4297 v 0 c -1.4808,1.1454 -6.1676,1.4629 -16.2929,1.3731 -8.3849,-0.075 -21.2117,1.2918 -31.3106,9.5585 h -88.2636 -15.1172 -15.1192 -77.1504 c 4.4584,-20.6581 15.7759,-39.9085 33.8379,-53.9433 v 0 c 9.5709,-7.4178 23.5142,-10.3956 39.5625,-11.6386 16.0497,-1.2432 33.2077,-0.4342 49.5156,-4.7754 9.1733,-2.4421 16.8695,-7.7785 21.6113,-14.1016 4.7422,-6.323 6.7569,-12.8902 8.1739,-18.3125 2.8339,-10.8445 4.2547,-15.9922 5.8183,-17.207 23.308,-18.1047 54.3077,-18.9023 78.0137,-4.6231 l 8.8848,5.3516 59.1718,-45.9649 24.9414,-19.373 23.8848,-18.5527 1.4375,-4.4082 c 1.0689,-3.2764 2.944,-6.2512 5.584,-8.7637 0.4199,0.069 2.0733,-0.1992 5.6348,-0.3145 l 4.9082,-0.1582 18.9765,-14.7402 1.5293,-3.7422 c 5.6701,-13.8788 8.2132,-25.1199 11.7637,-27.8867 v 0 c 5.7238,-4.4409 12.3217,-6.5928 18.9922,-6.7148 9.7573,-0.1784 19.3856,3.9941 25.8868,12.3633 10.9443,14.0901 8.4548,33.9251 -5.627,44.8769 -3.5596,2.7487 -15.0507,2.4401 -29.8672,4.4707 l -4.0195,0.5508 -19.0703,14.8145 -1.3614,4.7402 c -0.9528,3.3185 -1.6264,4.8828 -1.6933,5.3477 -3.0766,1.9219 -6.4115,2.9938 -9.8418,3.2187 l -4.6231,0.3027 -18.3886,14.2832 z"
         style="color:#000000;font-style:normal;font-variant:normal;font-weight:normal;font-stretch:normal;font-size:medium;line-height:normal;font-family:sans-serif;font-variant-ligatures:normal;font-variant-position:normal;font-variant-caps:normal;font-variant-numeric:normal;font-variant-alternates:normal;font-feature-settings:normal;text-indent:0;text-align:start;text-decoration:none;text-decoration-line:none;text-decoration-style:solid;text-decoration-color:#000000;letter-spacing:normal;word-spacing:normal;text-transform:none;writing-mode:lr-tb;direction:ltr;text-orientation:mixed;dominant-baseline:auto;baseline-shift:baseline;text-anchor:start;white-space:normal;shape-padding:0;clip-rule:nonzero;display:inline;overflow:visible;visibility:visible;opacity:1;isolation:auto;mix-blend-mode:normal;color-interpolation:sRGB;color-interpolation-filters:linearRGB;solid-color:#000000;solid-opacity:1;vector-effect:none;fill:#ffffff;fill-opacity:1;fill-rule:nonzero;stroke:none;stroke-width:30.23622131;stroke-linecap:butt;stroke-linejoin:miter;stroke-miterlimit:4;stroke-dasharray:none;stroke-dashoffset:0;stroke-opacity:1;color-rendering:auto;image-rendering:auto;shape-rendering:auto;text-rendering:auto;enable-background:accumulate" />
      <path
         inkscape:connector-curvature="0"
         transform="scale(0.26458333)"
         id="circle1245"
         d="m 5612.5586,2352.8008 a 34.323783,34.323783 0 0 0 -22.4141,7.1894 34.323783,34.323783 0 0 0 -12.9511,22.5293 h 67.9902 a 34.323783,34.323783 0 0 0 -6.877,-16.4785 34.323783,34.323783 0 0 0 -25.748,-13.2402 z"
         style="opacity:1;fill:#ffffff;fill-opacity:1;stroke:#ffffff;stroke-width:30.23622131;stroke-linecap:square;stroke-linejoin:miter;stroke-miterlimit:4;stroke-dasharray:none;stroke-opacity:1" />
      <path
         style="opacity:1;fill:#ffffff;fill-opacity:1;stroke:#ffffff;stroke-width:2.05986547;stroke-linecap:square;stroke-linejoin:miter;stroke-miterlimit:8.19999981;stroke-dasharray:none;stroke-opacity:1"
         d="m 1505.138,545.39204 c -5.3309,-0.15694 -4.7648,10.85445 -18.1762,2.62947 12.6423,15.60625 11.9977,-0.98277 23.0531,4.49186 11.0554,-5.47463 10.4108,11.11439 23.0531,-4.49186 -16.5063,10.12305 -11.8393,-8.8931 -23.0531,-0.36292 -2.1025,-1.59941 -3.6467,-2.23034 -4.8769,-2.26655 z"
         id="path1249"
         inkscape:connector-curvature="0" />
      <path
         sodipodi:nodetypes="cccccc"
         inkscape:connector-curvature="0"
         id="path1251"
         transform="scale(0.26458333)"
         d="m 5788.1738,1848.2031 c -120.7529,18.8677 -141.8353,20.7865 -208.6054,113.084 -33.4285,11.4224 -26.7918,23.313 -60.6811,34.459 134.7602,-9.5994 213.6209,17.3558 364.9955,-28.7969 38.7679,-12.8502 26.6471,-56.2366 -60.7832,-57.8926 -4.1788,-18.7755 -15.3778,-38.9583 -34.9258,-60.8535 z"
         style="opacity:1;fill:#2ca02c;fill-opacity:1;stroke:#ffffff;stroke-width:30.23622131;stroke-linecap:square;stroke-linejoin:miter;stroke-miterlimit:8.19999981;stroke-dasharray:none;stroke-opacity:1" />
      <path
         style="opacity:1;fill:#ffffff;fill-opacity:1;stroke:#ffffff;stroke-width:2.12350965;stroke-linecap:square;stroke-linejoin:miter;stroke-miterlimit:8.19999981;stroke-dasharray:none;stroke-opacity:1"
         d="m 1579.8598,471.07164 c -1.2604,51.1471 -35.0285,7.13836 -51.7768,47.49606 3.9332,-47.40533 36.8995,-20.76911 51.7768,-47.49606 z"
         id="path1255"
         inkscape:connector-curvature="0"
         sodipodi:nodetypes="ccc" />
    </g>
  </g>
</svg>
