<?xml version="1.0" encoding="UTF-8" standalone="no"?>
<!-- Created with Inkscape (http://www.inkscape.org/) -->

<svg
   xmlns:dc="http://purl.org/dc/elements/1.1/"
   xmlns:cc="http://creativecommons.org/ns#"
   xmlns:rdf="http://www.w3.org/1999/02/22-rdf-syntax-ns#"
   xmlns:svg="http://www.w3.org/2000/svg"
   xmlns="http://www.w3.org/2000/svg"
   xmlns:sodipodi="http://sodipodi.sourceforge.net/DTD/sodipodi-0.dtd"
   xmlns:inkscape="http://www.inkscape.org/namespaces/inkscape"
   width="165.62801mm"
   height="165.62801mm"
   viewBox="0 0 165.62801 165.62801"
   version="1.1"
   id="svg8"
   inkscape:version="0.92.4 (5da689c313, 2019-01-14)"
   sodipodi:docname="Icon_War.svg">
  <defs
     id="defs2" />
  <sodipodi:namedview
     id="base"
     pagecolor="#ffffff"
     bordercolor="#666666"
     borderopacity="1.0"
     inkscape:pageopacity="0.0"
     inkscape:pageshadow="2"
     inkscape:zoom="0.5"
     inkscape:cx="-116.92126"
     inkscape:cy="246.21502"
     inkscape:document-units="mm"
     inkscape:current-layer="layer1"
     showgrid="false"
     showguides="false"
     inkscape:window-width="1920"
     inkscape:window-height="1017"
     inkscape:window-x="1912"
     inkscape:window-y="-8"
     inkscape:window-maximized="1" />
  <metadata
     id="metadata5">
    <rdf:RDF>
      <cc:Work
         rdf:about="">
        <dc:format>image/svg+xml</dc:format>
        <dc:type
           rdf:resource="http://purl.org/dc/dcmitype/StillImage" />
        <dc:title />
      </cc:Work>
    </rdf:RDF>
  </metadata>
  <g
     inkscape:label="Capa 1"
     inkscape:groupmode="layer"
     id="layer1"
     transform="translate(0,-131.372)">
    <g
       id="g871">
      <rect
         y="131.3868"
         x="0.037218969"
         height="165.55357"
         width="165.55357"
         id="rect1137"
         style="opacity:1;fill:#2a7fff;fill-opacity:1;stroke:#000000;stroke-width:0.074;stroke-miterlimit:4;stroke-dasharray:none;stroke-opacity:1" />
      <path
         inkscape:connector-curvature="0"
         id="path1141"
         d="m 21.9885,297.01109 a 60.825731,60.825731 0 0 1 -2.3e-4,-0.16603 60.825731,60.825731 0 0 1 60.82574,-60.82572 60.825731,60.825731 0 0 1 60.82573,60.82572 v 0 a 60.825731,60.825731 0 0 1 -2.3e-4,0.16616"
         style="opacity:1;fill:#ffffff;fill-opacity:1;stroke:#000000;stroke-width:0.13086191;stroke-miterlimit:4;stroke-dasharray:none;stroke-opacity:1" />
      <rect
         style="opacity:1;fill:#c83737;fill-opacity:1;stroke:#000000;stroke-width:0.074;stroke-miterlimit:4;stroke-dasharray:none;stroke-opacity:1"
         id="rect1143"
         width="165.55357"
         height="165.55357"
         x="0.037218969"
         y="131.3868" />
      <path
         style="opacity:1;fill:none;fill-opacity:1;stroke:#ffffff;stroke-width:8;stroke-miterlimit:4;stroke-dasharray:none;stroke-opacity:1"
         d="m 21.9885,297.01109 a 60.825731,60.825731 0 0 1 -2.3e-4,-0.16603 60.825731,60.825731 0 0 1 60.82574,-60.82572 60.825731,60.825731 0 0 1 60.82573,60.82572 v 0 a 60.825731,60.825731 0 0 1 -2.3e-4,0.16616"
         id="path1147"
         inkscape:connector-curvature="0" />
      <path
         sodipodi:nodetypes="ccccc"
         inkscape:connector-curvature="0"
         id="path1153"
         d="m 21.9885,297.01109 v -85.09907 l 6.41126,-19.51302 6.41126,19.51302 v 85.09907"
         style="opacity:1;fill:#c83737;fill-opacity:1;stroke:#ffffff;stroke-width:8;stroke-miterlimit:4;stroke-dasharray:none;stroke-opacity:1" />
      <path
         sodipodi:nodetypes="czcccc"
         inkscape:connector-curvature="0"
         id="path1155"
         d="m 46.66248,190.58934 c 0,0 3.81528,-32.60688 35.94596,-32.60688 32.13068,0 35.94596,32.60688 35.94596,32.60688 v 48.10852 H 46.66248 Z"
         style="opacity:1;fill:#c83737;fill-opacity:1;stroke:#ffffff;stroke-width:7.62622166;stroke-miterlimit:4;stroke-dasharray:none;stroke-opacity:1" />
      <path
         sodipodi:nodetypes="ccccccc"
         inkscape:connector-curvature="0"
         id="path1157"
         d="m 104.20826,185.72997 -21.59982,5.58968 -21.59983,-5.58968 17.98078,9.81535 3.61905,38.12293 3.61905,-38.12293 z"
         inkscape:transform-center-y="4.2033896"
         inkscape:transform-center-x="3.4287222e-06"
         style="opacity:1;fill:#ffffff;fill-opacity:1;stroke:#ffffff;stroke-width:2.45199966;stroke-linecap:square;stroke-linejoin:miter;stroke-miterlimit:8.19999981;stroke-dasharray:none;stroke-opacity:1" />
    </g>
  </g>
</svg>
