<?xml version="1.0" encoding="UTF-8" standalone="no"?>
<!-- Created with Inkscape (http://www.inkscape.org/) -->

<svg
   xmlns:dc="http://purl.org/dc/elements/1.1/"
   xmlns:cc="http://creativecommons.org/ns#"
   xmlns:rdf="http://www.w3.org/1999/02/22-rdf-syntax-ns#"
   xmlns:svg="http://www.w3.org/2000/svg"
   xmlns="http://www.w3.org/2000/svg"
   xmlns:sodipodi="http://sodipodi.sourceforge.net/DTD/sodipodi-0.dtd"
   xmlns:inkscape="http://www.inkscape.org/namespaces/inkscape"
   width="165.62801mm"
   height="165.62801mm"
   viewBox="0 0 165.62801 165.62801"
   version="1.1"
   id="svg8"
   inkscape:version="0.92.4 (5da689c313, 2019-01-14)"
   sodipodi:docname="Icon_Bard.svg">
  <defs
     id="defs2" />
  <sodipodi:namedview
     id="base"
     pagecolor="#ffffff"
     bordercolor="#666666"
     borderopacity="1.0"
     inkscape:pageopacity="0.0"
     inkscape:pageshadow="2"
     inkscape:zoom="0.70710678"
     inkscape:cx="103.85951"
     inkscape:cy="224.36468"
     inkscape:document-units="mm"
     inkscape:current-layer="layer1"
     showgrid="false"
     showguides="false"
     inkscape:window-width="1920"
     inkscape:window-height="1017"
     inkscape:window-x="1912"
     inkscape:window-y="-8"
     inkscape:window-maximized="1" />
  <metadata
     id="metadata5">
    <rdf:RDF>
      <cc:Work
         rdf:about="">
        <dc:format>image/svg+xml</dc:format>
        <dc:type
           rdf:resource="http://purl.org/dc/dcmitype/StillImage" />
        <dc:title />
      </cc:Work>
    </rdf:RDF>
  </metadata>
  <g
     inkscape:label="Capa 1"
     inkscape:groupmode="layer"
     id="layer1"
     transform="translate(0,-131.372)">
    <path
       style="opacity:1;fill:#ffffff;fill-opacity:1;stroke:#000000;stroke-width:0.13086191;stroke-miterlimit:4;stroke-dasharray:none;stroke-opacity:1"
       d="m 21.9885,297.03329 a 60.825731,60.825731 0 0 1 -2e-4,-0.16603 60.825731,60.825731 0 0 1 60.8257,-60.82572 60.825731,60.825731 0 0 1 60.8257,60.82572 v 0 a 60.825731,60.825731 0 0 1 -2e-4,0.16616"
       id="path1233"
       inkscape:connector-curvature="0" />
    <rect
       y="131.409"
       x="0.03725918"
       height="165.55357"
       width="165.55357"
       id="rect1235"
       style="opacity:1;fill:#2ca02c;fill-opacity:1;stroke:#000000;stroke-width:0.074;stroke-miterlimit:4;stroke-dasharray:none;stroke-opacity:1" />
    <circle
       r="34.395832"
       cy="202.84647"
       cx="82.813995"
       id="circle1237"
       style="opacity:1;fill:none;fill-opacity:1;stroke:#ffffff;stroke-width:8;stroke-miterlimit:4;stroke-dasharray:none;stroke-opacity:1" />
    <path
       style="color:#000000;font-style:normal;font-variant:normal;font-weight:normal;font-stretch:normal;font-size:medium;line-height:normal;font-family:sans-serif;font-variant-ligatures:normal;font-variant-position:normal;font-variant-caps:normal;font-variant-numeric:normal;font-variant-alternates:normal;font-feature-settings:normal;text-indent:0;text-align:start;text-decoration:none;text-decoration-line:none;text-decoration-style:solid;text-decoration-color:#000000;letter-spacing:normal;word-spacing:normal;text-transform:none;writing-mode:lr-tb;direction:ltr;text-orientation:mixed;dominant-baseline:auto;baseline-shift:baseline;text-anchor:start;white-space:normal;shape-padding:0;clip-rule:nonzero;display:inline;overflow:visible;visibility:visible;opacity:1;isolation:auto;mix-blend-mode:normal;color-interpolation:sRGB;color-interpolation-filters:linearRGB;solid-color:#000000;solid-opacity:1;vector-effect:none;fill:#ffffff;fill-opacity:1;fill-rule:nonzero;stroke:none;stroke-width:8;stroke-linecap:butt;stroke-linejoin:miter;stroke-miterlimit:4;stroke-dasharray:none;stroke-dashoffset:0;stroke-opacity:1;color-rendering:auto;image-rendering:auto;shape-rendering:auto;text-rendering:auto;enable-background:accumulate"
       d="m 145.31549,213.55883 c -0.15404,-0.003 -0.3079,0 -0.46199,0.003 -3.4267,0.0627 -6.88687,1.20544 -9.78906,3.45975 v 0.003 0 c -4.02619,3.13404 -4.72217,7.53417 -5.35678,9.79787 l -0.9803,0.76171 c -1.10451,-0.055 -2.77003,0.0547 -4.55113,1.43814 v 0 c -1.8384,1.42809 -3.19743,3.26559 -4.08553,5.271 l -6.86729,5.33456 c -9.07323,-4.83815 -19.423857,-7.58558 -30.407955,-7.58558 -35.754812,3e-5 -64.826541,29.07115 -64.826541,64.82601 -1.06e-4,0.059 -1.85e-4,0.11671 0,0.17571 l 8.45021,1.3602 c -8e-5,-0.0204 -0.450162,-1.42007 -0.450189,-1.44024 h 75.744735 c 0.27283,-0.17044 0.54501,-0.35679 0.81494,-0.56583 v -0.003 -0.003 c 8.0106,-6.22252 11.43458,-16.21075 9.69036,-25.5793 l 13.87668,-10.77918 c 8.43579,9.91304 13.52373,22.76729 13.52373,36.83288 v 0.003 c 8e-5,0.0517 1.9e-4,0.10226 0,0.15399 l 8.00002,0.0217 c 1.9e-4,-0.059 1.1e-4,-0.11874 0,-0.17777 0,-15.87704 -5.73537,-30.43325 -15.23939,-41.71426 l 2.42933,-1.88722 c 2.16169,-0.36425 4.27781,-1.22587 6.11642,-2.65409 v -0.003 -0.003 c 1.77229,-1.38089 2.28971,-2.96188 2.50992,-4.04628 l 0.99528,-0.77308 c 2.35522,-0.0529 6.77987,0.3583 10.80659,-2.75849 v -0.003 -0.003 c 7.14359,-5.54902 8.45217,-15.95858 2.90317,-23.10246 -3.19183,-4.10903 -7.99455,-6.31346 -12.8447,-6.36394 z m -62.500564,26.48159 c 8.352816,0 16.278939,1.79369 23.415624,5.01726 l -8.729186,6.78098 c -8.646001,-4.00754 -19.170993,-3.16071 -27.181809,3.06181 -3.588385,2.78742 -3.820028,6.7345 -4.372346,8.84804 -0.276198,1.05675 -0.567875,1.72839 -0.822669,2.06809 -0.25482,0.3397 -0.41275,0.54364 -1.375648,0.79997 -2.465202,0.65622 -6.878187,0.64809 -11.660769,1.01854 -4.782608,0.37047 -10.198656,1.20346 -14.751553,4.73252 v 0.003 0 c -4.781047,3.71379 -8.254391,8.51098 -10.337879,13.77746 4.99999,-26.28921 28.050648,-46.10777 55.816235,-46.10777 z m 37.659204,14.24305 -17.3359,13.46636 0.79066,2.62774 c 2.1087,7.01005 -0.12295,14.90226 -6.28645,19.69285 v 0 c -0.391795,0.30306 -1.631844,0.38706 -4.31083,0.3633 -2.218504,-0.0198 -5.612262,0.34179 -8.284262,2.52902 H 61.69427 57.694511 53.694223 33.281513 c 1.179619,-5.46578 4.17404,-10.55912 8.952945,-14.27249 v 0 c 2.5323,-1.96263 6.221465,-2.75051 10.467578,-3.07938 4.246483,-0.32893 8.786203,-0.11489 13.101002,-1.26349 2.427102,-0.64614 4.463388,-2.05807 5.71799,-3.73105 1.254707,-1.67296 1.787763,-3.41054 2.162677,-4.84519 0.749803,-2.86927 1.125723,-4.23126 1.539425,-4.55268 6.166909,-4.7902 14.368913,-5.00123 20.641125,-1.2232 l 2.35077,1.41595 15.655875,-12.16155 6.59908,-5.12577 6.31952,-4.90874 0.38033,-1.16633 c 0.28282,-0.86688 0.77894,-1.65397 1.47744,-2.31873 0.1111,0.0183 0.54856,-0.0527 1.49087,-0.0832 l 1.29863,-0.0419 5.02086,-3.90001 0.40463,-0.99012 c 1.50022,-3.6721 2.17308,-6.64631 3.11248,-7.37836 v 0 c 1.51442,-1.17499 3.26012,-1.74435 5.02502,-1.77662 2.58162,-0.0472 5.12911,1.05677 6.84922,3.27112 2.89568,3.728 2.237,8.97601 -1.48881,11.87368 -0.94181,0.72726 -3.98217,0.64561 -7.90237,1.18287 l -1.06349,0.14573 -5.04568,3.91967 -0.36021,1.25418 c -0.25209,0.87802 -0.43032,1.29191 -0.44802,1.41491 -0.81401,0.50851 -1.69637,0.79211 -2.60397,0.85162 l -1.2232,0.0801 -4.86531,3.77909 z"
       id="path1239"
       inkscape:connector-curvature="0"
       sodipodi:nodetypes="sccccccccccsccccccccccsccccccccccccccccscccccccccccsccccccccccccccccccccccccccccccccccccccccccccc" />
    <path
       style="opacity:1;fill:#ffffff;fill-opacity:1;stroke:#ffffff;stroke-width:8;stroke-linecap:square;stroke-linejoin:miter;stroke-miterlimit:4;stroke-dasharray:none;stroke-opacity:1"
       d="m 57.788544,289.09943 a 9.0815008,9.0815008 0 0 0 -5.930397,1.9022 9.0815008,9.0815008 0 0 0 -3.426645,5.96087 h 17.989073 a 9.0815008,9.0815008 0 0 0 -1.819539,-4.35993 9.0815008,9.0815008 0 0 0 -6.812492,-3.50314 z"
       id="circle1245"
       inkscape:connector-curvature="0" />
    <path
       inkscape:connector-curvature="0"
       id="path1249"
       d="m 77.9371,211.9796 c -5.3309,-0.15694 -4.7648,10.85445 -18.1762,2.62947 12.6423,15.60625 11.9977,-0.98277 23.0531,4.49186 11.0554,-5.47463 10.4108,11.11439 23.0531,-4.49186 -16.5063,10.12305 -11.8393,-8.8931 -23.0531,-0.36292 -2.1025,-1.59941 -3.6467,-2.23034 -4.8769,-2.26655 z"
       style="opacity:1;fill:#ffffff;fill-opacity:1;stroke:#ffffff;stroke-width:2.05986547;stroke-linecap:square;stroke-linejoin:miter;stroke-miterlimit:8.19999981;stroke-dasharray:none;stroke-opacity:1" />
    <path
       style="opacity:1;fill:#2ca02c;fill-opacity:1;stroke:#ffffff;stroke-width:8;stroke-linecap:square;stroke-linejoin:miter;stroke-miterlimit:8.19999981;stroke-dasharray:none;stroke-opacity:1"
       d="m 104.2534,155.59129 c -31.949206,4.99208 -37.527257,5.49976 -55.193513,29.92014 -8.844624,3.02218 -7.088663,6.16823 -16.055207,9.11728 35.655302,-2.53984 56.520529,4.59205 96.57172,-7.61918 10.25734,-3.39995 7.05038,-14.87927 -16.08222,-15.31742 -1.10564,-4.96768 -4.06871,-10.30771 -9.24078,-16.10082 z"
       id="path1251"
       inkscape:connector-curvature="0"
       sodipodi:nodetypes="cccccc" />
    <path
       sodipodi:nodetypes="ccc"
       inkscape:connector-curvature="0"
       id="path1255"
       d="m 152.6589,137.6592 c -1.2604,51.1471 -35.0285,7.13836 -51.7768,47.49606 3.9332,-47.40533 36.8995,-20.76911 51.7768,-47.49606 z"
       style="opacity:1;fill:#ffffff;fill-opacity:1;stroke:#ffffff;stroke-width:2.12350965;stroke-linecap:square;stroke-linejoin:miter;stroke-miterlimit:8.19999981;stroke-dasharray:none;stroke-opacity:1" />
  </g>
</svg>
