<?xml version="1.0" encoding="UTF-8" standalone="no"?>
<!-- Created with Inkscape (http://www.inkscape.org/) -->

<svg
   xmlns:dc="http://purl.org/dc/elements/1.1/"
   xmlns:cc="http://creativecommons.org/ns#"
   xmlns:rdf="http://www.w3.org/1999/02/22-rdf-syntax-ns#"
   xmlns:svg="http://www.w3.org/2000/svg"
   xmlns="http://www.w3.org/2000/svg"
   xmlns:sodipodi="http://sodipodi.sourceforge.net/DTD/sodipodi-0.dtd"
   xmlns:inkscape="http://www.inkscape.org/namespaces/inkscape"
   width="165.62801mm"
   height="165.62801mm"
   viewBox="0 0 165.62801 165.62801"
   version="1.1"
   id="svg8"
   inkscape:version="0.92.4 (5da689c313, 2019-01-14)"
   sodipodi:docname="logo.svg">
  <defs
     id="defs2" />
  <sodipodi:namedview
     id="base"
     pagecolor="#ffffff"
     bordercolor="#666666"
     borderopacity="1.0"
     inkscape:pageopacity="0.0"
     inkscape:pageshadow="2"
     inkscape:zoom="0.5"
     inkscape:cx="722.32231"
     inkscape:cy="557.39435"
     inkscape:document-units="mm"
     inkscape:current-layer="layer1"
     showgrid="false"
     showguides="false"
     inkscape:window-width="1920"
     inkscape:window-height="1017"
     inkscape:window-x="1912"
     inkscape:window-y="-8"
     inkscape:window-maximized="1" />
  <metadata
     id="metadata5">
    <rdf:RDF>
      <cc:Work
         rdf:about="">
        <dc:format>image/svg+xml</dc:format>
        <dc:type
           rdf:resource="http://purl.org/dc/dcmitype/StillImage" />
        <dc:title />
      </cc:Work>
    </rdf:RDF>
  </metadata>
  <g
     inkscape:label="Capa 1"
     inkscape:groupmode="layer"
     id="layer1"
     transform="translate(0,-131.372)">
    <path
       inkscape:connector-curvature="0"
       id="path891"
       d="M 82.81402,294.11058 13.59706,254.14816 v -79.9238 l 69.21696,-39.96294 69.21696,39.96294 v 2.30838 77.61542 z"
       style="color:#000000;font-style:normal;font-variant:normal;font-weight:normal;font-stretch:normal;font-size:medium;line-height:normal;font-family:sans-serif;font-variant-ligatures:normal;font-variant-position:normal;font-variant-caps:normal;font-variant-numeric:normal;font-variant-alternates:normal;font-feature-settings:normal;text-indent:0;text-align:start;text-decoration:none;text-decoration-line:none;text-decoration-style:solid;text-decoration-color:#000000;letter-spacing:normal;word-spacing:normal;text-transform:none;writing-mode:lr-tb;direction:ltr;text-orientation:mixed;dominant-baseline:auto;baseline-shift:baseline;text-anchor:start;white-space:normal;shape-padding:0;clip-rule:nonzero;display:inline;overflow:visible;visibility:visible;opacity:1;isolation:auto;mix-blend-mode:normal;color-interpolation:sRGB;color-interpolation-filters:linearRGB;solid-color:#000000;solid-opacity:1;vector-effect:none;fill:#ffffff;fill-opacity:1;fill-rule:nonzero;stroke:none;stroke-width:0.40000001;stroke-linecap:butt;stroke-linejoin:miter;stroke-miterlimit:4;stroke-dasharray:none;stroke-dashoffset:0;stroke-opacity:1;color-rendering:auto;image-rendering:auto;shape-rendering:auto;text-rendering:auto;enable-background:accumulate"
       sodipodi:nodetypes="cccccccc" />
    <path
       style="color:#000000;font-style:normal;font-variant:normal;font-weight:normal;font-stretch:normal;font-size:medium;line-height:normal;font-family:sans-serif;font-variant-ligatures:normal;font-variant-position:normal;font-variant-caps:normal;font-variant-numeric:normal;font-variant-alternates:normal;font-feature-settings:normal;text-indent:0;text-align:start;text-decoration:none;text-decoration-line:none;text-decoration-style:solid;text-decoration-color:#000000;letter-spacing:normal;word-spacing:normal;text-transform:none;writing-mode:lr-tb;direction:ltr;text-orientation:mixed;dominant-baseline:auto;baseline-shift:baseline;text-anchor:start;white-space:normal;shape-padding:0;clip-rule:nonzero;display:inline;overflow:visible;visibility:visible;opacity:1;isolation:auto;mix-blend-mode:normal;color-interpolation:sRGB;color-interpolation-filters:linearRGB;solid-color:#000000;solid-opacity:1;vector-effect:none;fill:#000000;fill-opacity:1;fill-rule:nonzero;stroke:none;stroke-width:0.40000001;stroke-linecap:butt;stroke-linejoin:miter;stroke-miterlimit:4;stroke-dasharray:none;stroke-dashoffset:0;stroke-opacity:1;color-rendering:auto;image-rendering:auto;shape-rendering:auto;text-rendering:auto;enable-background:accumulate"
       d="M 82.81402,294.11058 13.59706,254.14816 v -79.9238 l 69.21696,-39.96294 69.21696,39.96294 v 2.30838 77.61542 z m -3.99976,-11.54762 v -12.5181 l -36.0753,-8.31008 z m 8.00002,0 36.07532,-20.82818 -36.07532,8.31008 z M 74.75404,260.90072 38.32888,197.81 22.67917,248.90403 Z m 16.11995,0 52.07484,-11.99514 -15.64812,-51.0961 z m -8.05997,-2.03967 38.68962,-67.014 H 44.12439 Z M 21.59708,225.11944 32.43881,189.72005 21.59708,183.461 Z m 122.43387,-0.003 v -41.65482 l -10.8412,6.25956 z M 46.38989,183.84712 H 119.2397 L 82.81402,144.7477 Z m 82.79957,-1.0542 10.8407,-6.25956 -36.07739,-20.83077 z m -92.75039,-0.001 25.2367,-27.08982 -36.07893,20.82974 z"
       id="path1087"
       inkscape:connector-curvature="0" />
    <path
       id="path1122"
       style="font-style:normal;font-variant:normal;font-weight:normal;font-stretch:normal;font-size:26.70614433px;line-height:1.25;font-family:'Geometr415 Blk BT';-inkscape-font-specification:'Geometr415 Blk BT';letter-spacing:0px;word-spacing:0px;fill:#000000;fill-opacity:1;stroke:none;stroke-width:0.66765362"
       d="m 38.84982,241.79695 h 0.99105 q 2.96011,0 4.62924,-1.43441 1.66914,-1.43442 1.66914,-3.9642 0,-2.52978 -1.66914,-3.97723 -1.66913,-1.44745 -4.62924,-1.44745 h -0.99105 z m -4.45971,4.05547 v -18.90816 h 5.02044 q 5.29428,0 8.29351,2.52978 2.99922,2.52979 2.99922,6.9243 0,2.6341 -1.18665,4.6814 -1.18665,2.03426 -3.4817,3.35131 -1.30402,0.75633 -2.84275,1.09537 -1.52569,0.326 -3.78163,0.326 z"
       inkscape:connector-curvature="0" />
    <path
       id="path1119"
       style="font-style:normal;font-variant:normal;font-weight:normal;font-stretch:normal;font-size:26.70614433px;line-height:1.25;font-family:'Geometr415 Blk BT';-inkscape-font-specification:'Geometr415 Blk BT';letter-spacing:0px;word-spacing:0px;fill:#000000;fill-opacity:1;stroke:none;stroke-width:0.66765362"
       d="m 131.40495,234.56137 v 9.19328 q -1.90386,0.95193 -3.71644,1.43441 -1.79953,0.48248 -3.49475,0.48248 -4.31627,0 -7.17206,-2.84274 -2.84274,-2.85578 -2.84274,-7.19814 0,-4.38148 2.88187,-7.2503 2.8949,-2.86882 7.3155,-2.86882 1.66913,0 3.18178,0.4564 1.51266,0.4564 2.90795,1.38225 l -0.48249,4.73356 q -1.31705,-1.33009 -2.62106,-1.94298 -1.30401,-0.62592 -2.73842,-0.62592 -2.54282,0 -4.21196,1.70825 -1.66913,1.69522 -1.66913,4.25108 0,2.68626 1.60393,4.39452 1.61698,1.69521 4.1598,1.69521 0.5868,0 1.18665,-0.10432 0.59984,-0.10432 1.25185,-0.29992 v -2.75147 h -3.58603 v -3.84683 z"
       inkscape:connector-curvature="0" />
    <path
       id="path1113"
       style="font-style:normal;font-variant:normal;font-weight:normal;font-stretch:normal;font-size:42.56777954px;line-height:1.25;font-family:'Geometr415 Blk BT';-inkscape-font-specification:'Geometr415 Blk BT';letter-spacing:0px;word-spacing:0px;fill:#000000;fill-opacity:1;stroke:none;stroke-width:1.06419444"
       d="m 94.41202,208.30365 q -1.9538,-2.01615 -3.96995,-2.99305 -1.99536,-0.9769 -4.19858,-0.9769 -3.82444,0 -6.2563,2.63971 -2.43185,2.6397 -2.43185,6.77592 0,4.13623 2.41107,6.71357 2.41106,2.55656 6.27708,2.55656 2.28636,0 4.55193,-0.95611 2.28636,-0.95611 4.55193,-2.86834 l -0.45728,8.00225 q -1.93301,1.30946 -4.24015,1.99536 -2.28635,0.68591 -4.75977,0.68591 -2.66049,0 -5.11312,-0.8314 -2.43185,-0.83141 -4.48957,-2.45264 -2.90991,-2.28635 -4.46879,-5.57039 -1.53809,-3.30482 -1.53809,-7.19163 0,-3.34639 1.14317,-6.27708 1.14318,-2.9307 3.32561,-5.17548 2.20322,-2.24479 5.09234,-3.42953 2.88912,-1.20554 6.09002,-1.20554 2.53577,0 4.84291,0.7067 2.30715,0.70669 4.40643,2.14086 z"
       inkscape:connector-curvature="0" />
    <path
       id="path1116"
       style="font-style:normal;font-variant:normal;font-weight:normal;font-stretch:normal;font-size:26.70614433px;line-height:1.25;font-family:'Geometr415 Blk BT';-inkscape-font-specification:'Geometr415 Blk BT';letter-spacing:0px;word-spacing:0px;fill:#000000;fill-opacity:1;stroke:none;stroke-width:0.66765362"
       d="m 71.6133,178.39571 3.92507,-19.52104 h 0.326 l 7.13294,12.30986 6.7287,-12.30986 h 0.33904 l 3.95116,19.52104 h -4.2902 l -1.60393,-8.63255 -5.07261,9.32368 h -0.29992 l -5.45076,-9.45408 -1.6561,8.76295 z"
       inkscape:connector-curvature="0" />
  </g>
</svg>
